<svg xmlns="http://www.w3.org/2000/svg" viewBox="0 0 560 400" fill="none">
  <defs>
    <linearGradient id="bg" x1="0" y1="0" x2="560" y2="400" gradientUnits="userSpaceOnUse">
      <stop stop-color="#0f172a"/><stop offset="1" stop-color="#1e293b"/>
    </linearGradient>
    <linearGradient id="accent" x1="0" y1="0" x2="1" y2="1">
      <stop stop-color="#38bdf8"/><stop offset="1" stop-color="#818cf8"/>
    </linearGradient>
    <linearGradient id="green" x1="0" y1="0" x2="0" y2="1">
      <stop stop-color="#10b981"/><stop offset="1" stop-color="#059669"/>
    </linearGradient>
    <filter id="sh"><feDropShadow dx="0" dy="6" stdDeviation="10" flood-opacity=".18"/></filter>
    <filter id="shs"><feDropShadow dx="0" dy="2" stdDeviation="4" flood-opacity=".12"/></filter>
  </defs>
  <rect width="560" height="400" rx="16" fill="url(#bg)"/>
  <!-- Browser chrome -->
  <rect x="20" y="20" width="520" height="360" rx="12" fill="#1a2332" stroke="#334155" stroke-width="1"/>
  <rect x="20" y="20" width="520" height="32" rx="12" fill="#0f172a"/>
  <rect x="20" y="40" width="520" height="12" fill="#0f172a"/>
  <circle cx="38" cy="36" r="5" fill="#ef4444" opacity=".8"/>
  <circle cx="54" cy="36" r="5" fill="#f59e0b" opacity=".8"/>
  <circle cx="70" cy="36" r="5" fill="#10b981" opacity=".8"/>
  <rect x="120" y="30" width="200" height="12" rx="6" fill="#1e293b"/>
  <text x="140" y="39" font-family="system-ui" font-size="6" fill="#64748b">pouchcare.com/dashboard</text>

  <!-- Sidebar -->
  <rect x="20" y="52" width="110" height="328" fill="#0f172a"/>
  <!-- Logo area -->
  <rect x="34" y="64" width="82" height="24" rx="6" fill="#1e293b"/>
  <text x="46" y="80" font-family="system-ui" font-size="9" fill="#38bdf8" font-weight="800">PouchCare</text>
  <!-- Sidebar items -->
  <rect x="30" y="100" width="90" height="22" rx="6" fill="#38bdf8" opacity=".15"/>
  <text x="42" y="114" font-family="system-ui" font-size="7" fill="#38bdf8" font-weight="600">Dashboard</text>
  <text x="42" y="138" font-family="system-ui" font-size="7" fill="#475569">Analytics</text>
  <text x="42" y="158" font-family="system-ui" font-size="7" fill="#475569">Keywords</text>
  <text x="42" y="178" font-family="system-ui" font-size="7" fill="#475569">Backlinks</text>
  <text x="42" y="198" font-family="system-ui" font-size="7" fill="#475569">Reports</text>
  <text x="42" y="218" font-family="system-ui" font-size="7" fill="#475569">Domains</text>
  <text x="42" y="238" font-family="system-ui" font-size="7" fill="#475569">Hosting</text>

  <!-- Main content area -->
  <g transform="translate(140, 60)">
    <!-- Header -->
    <text x="10" y="16" font-family="system-ui" font-size="11" fill="#e2e8f0" font-weight="700">Good morning, Sarah 👋</text>
    <text x="10" y="30" font-family="system-ui" font-size="7" fill="#64748b">Your campaign performance overview</text>

    <!-- Stat cards row -->
    <g filter="url(#shs)" transform="translate(10, 42)">
      <!-- Card 1: Organic Traffic -->
      <rect width="90" height="60" rx="8" fill="#1e293b" stroke="#334155" stroke-width=".5"/>
      <text x="10" y="16" font-family="system-ui" font-size="6" fill="#64748b" font-weight="500">Organic Traffic</text>
      <text x="10" y="36" font-family="system-ui" font-size="16" fill="#e2e8f0" font-weight="800">48.2K</text>
      <rect x="10" y="44" width="36" height="10" rx="4" fill="#10b981" opacity=".15"/>
      <text x="15" y="52" font-family="system-ui" font-size="6" fill="#10b981" font-weight="700">↑ +312%</text>
    </g>
    <g filter="url(#shs)" transform="translate(108, 42)">
      <!-- Card 2: Keywords Ranked -->
      <rect width="90" height="60" rx="8" fill="#1e293b" stroke="#334155" stroke-width=".5"/>
      <text x="10" y="16" font-family="system-ui" font-size="6" fill="#64748b" font-weight="500">Keywords Ranked</text>
      <text x="10" y="36" font-family="system-ui" font-size="16" fill="#e2e8f0" font-weight="800">8,412</text>
      <rect x="10" y="44" width="36" height="10" rx="4" fill="#10b981" opacity=".15"/>
      <text x="15" y="52" font-family="system-ui" font-size="6" fill="#10b981" font-weight="700">↑ +1.2K</text>
    </g>
    <g filter="url(#shs)" transform="translate(206, 42)">
      <!-- Card 3: Domain Authority -->
      <rect width="90" height="60" rx="8" fill="#1e293b" stroke="#334155" stroke-width=".5"/>
      <text x="10" y="16" font-family="system-ui" font-size="6" fill="#64748b" font-weight="500">Domain Authority</text>
      <text x="10" y="36" font-family="system-ui" font-size="16" fill="#e2e8f0" font-weight="800">DA 58</text>
      <rect x="10" y="44" width="32" height="10" rx="4" fill="#38bdf8" opacity=".15"/>
      <text x="15" y="52" font-family="system-ui" font-size="6" fill="#38bdf8" font-weight="700">↑ +14</text>
    </g>
    <g filter="url(#shs)" transform="translate(304, 42)">
      <!-- Card 4: Revenue -->
      <rect width="90" height="60" rx="8" fill="#1e293b" stroke="#334155" stroke-width=".5"/>
      <text x="10" y="16" font-family="system-ui" font-size="6" fill="#64748b" font-weight="500">Revenue Impact</text>
      <text x="10" y="36" font-family="system-ui" font-size="16" fill="#e2e8f0" font-weight="800">$284K</text>
      <rect x="10" y="44" width="36" height="10" rx="4" fill="#10b981" opacity=".15"/>
      <text x="15" y="52" font-family="system-ui" font-size="6" fill="#10b981" font-weight="700">↑ +89%</text>
    </g>

    <!-- Traffic chart -->
    <g filter="url(#shs)" transform="translate(10, 112)">
      <rect width="240" height="140" rx="8" fill="#1e293b" stroke="#334155" stroke-width=".5"/>
      <text x="14" y="20" font-family="system-ui" font-size="7" fill="#e2e8f0" font-weight="700">Organic Traffic Growth</text>
      <text x="180" y="20" font-family="system-ui" font-size="6" fill="#64748b">Last 12 months</text>
      <!-- Grid lines -->
      <line x1="14" y1="35" x2="230" y2="35" stroke="#334155" stroke-width=".5"/>
      <line x1="14" y1="55" x2="230" y2="55" stroke="#334155" stroke-width=".5"/>
      <line x1="14" y1="75" x2="230" y2="75" stroke="#334155" stroke-width=".5"/>
      <line x1="14" y1="95" x2="230" y2="95" stroke="#334155" stroke-width=".5"/>
      <line x1="14" y1="115" x2="230" y2="115" stroke="#334155" stroke-width=".5"/>
      <!-- Y-axis labels -->
      <text x="4" y="38" font-family="monospace" font-size="5" fill="#475569">50K</text>
      <text x="4" y="58" font-family="monospace" font-size="5" fill="#475569">40K</text>
      <text x="4" y="78" font-family="monospace" font-size="5" fill="#475569">30K</text>
      <text x="4" y="98" font-family="monospace" font-size="5" fill="#475569">20K</text>
      <text x="4" y="118" font-family="monospace" font-size="5" fill="#475569">10K</text>
      <!-- Area chart -->
      <path d="M20 110 L38 105 L56 100 L74 95 L92 88 L110 78 L128 70 L146 60 L164 55 L182 48 L200 42 L218 36 L218 115 L20 115 Z" fill="url(#accent)" opacity=".12"/>
      <path d="M20 110 L38 105 L56 100 L74 95 L92 88 L110 78 L128 70 L146 60 L164 55 L182 48 L200 42 L218 36" stroke="url(#accent)" stroke-width="2" fill="none" stroke-linecap="round"/>
      <!-- Data points -->
      <circle cx="218" cy="36" r="3" fill="#38bdf8"/>
      <circle cx="218" cy="36" r="6" fill="#38bdf8" opacity=".2"/>
      <!-- X-axis labels -->
      <text x="20" y="128" font-family="monospace" font-size="4.5" fill="#475569">Apr</text>
      <text x="56" y="128" font-family="monospace" font-size="4.5" fill="#475569">Jun</text>
      <text x="92" y="128" font-family="monospace" font-size="4.5" fill="#475569">Aug</text>
      <text x="128" y="128" font-family="monospace" font-size="4.5" fill="#475569">Oct</text>
      <text x="164" y="128" font-family="monospace" font-size="4.5" fill="#475569">Dec</text>
      <text x="200" y="128" font-family="monospace" font-size="4.5" fill="#475569">Mar</text>
    </g>

    <!-- Top keywords panel -->
    <g filter="url(#shs)" transform="translate(260, 112)">
      <rect width="134" height="140" rx="8" fill="#1e293b" stroke="#334155" stroke-width=".5"/>
      <text x="12" y="20" font-family="system-ui" font-size="7" fill="#e2e8f0" font-weight="700">Top Keywords</text>
      <!-- Keyword rows -->
      <g transform="translate(12, 32)">
        <rect width="110" height="18" rx="4" fill="#0f172a"/>
        <text x="6" y="12" font-family="monospace" font-size="6" fill="#38bdf8" font-weight="600">buy backlinks</text>
        <rect x="82" y="4" width="22" height="10" rx="3" fill="#10b981" opacity=".15"/>
        <text x="86" y="12" font-family="system-ui" font-size="5" fill="#10b981" font-weight="700">#1</text>
      </g>
      <g transform="translate(12, 54)">
        <rect width="110" height="18" rx="4" fill="#0f172a"/>
        <text x="6" y="12" font-family="monospace" font-size="6" fill="#38bdf8" font-weight="600">seo agency</text>
        <rect x="82" y="4" width="22" height="10" rx="3" fill="#10b981" opacity=".15"/>
        <text x="86" y="12" font-family="system-ui" font-size="5" fill="#10b981" font-weight="700">#2</text>
      </g>
      <g transform="translate(12, 76)">
        <rect width="110" height="18" rx="4" fill="#0f172a"/>
        <text x="6" y="12" font-family="monospace" font-size="6" fill="#38bdf8" font-weight="600">guest posting</text>
        <rect x="82" y="4" width="22" height="10" rx="3" fill="#10b981" opacity=".15"/>
        <text x="86" y="12" font-family="system-ui" font-size="5" fill="#10b981" font-weight="700">#1</text>
      </g>
      <g transform="translate(12, 98)">
        <rect width="110" height="18" rx="4" fill="#0f172a"/>
        <text x="6" y="12" font-family="monospace" font-size="6" fill="#38bdf8" font-weight="600">link building</text>
        <rect x="82" y="4" width="22" height="10" rx="3" fill="#f59e0b" opacity=".15"/>
        <text x="86" y="12" font-family="system-ui" font-size="5" fill="#f59e0b" font-weight="700">#3</text>
      </g>
      <g transform="translate(12, 120)">
        <rect width="110" height="12" rx="4" fill="transparent"/>
        <text x="0" y="9" font-family="system-ui" font-size="6" fill="#475569">+8,400 more on Page 1</text>
      </g>
    </g>

    <!-- Bottom bar: live backlinks -->
    <g filter="url(#shs)" transform="translate(10, 260)">
      <rect width="384" height="50" rx="8" fill="#1e293b" stroke="#334155" stroke-width=".5"/>
      <text x="14" y="18" font-family="system-ui" font-size="7" fill="#e2e8f0" font-weight="700">Recent Backlinks</text>
      <text x="280" y="18" font-family="system-ui" font-size="6" fill="#38bdf8" font-weight="600">View all →</text>
      <g transform="translate(14, 26)">
        <circle cx="4" cy="4" r="3" fill="#10b981"/>
        <text x="12" y="7" font-family="monospace" font-size="5.5" fill="#94a3b8">forbes.com</text>
        <text x="68" y="7" font-family="system-ui" font-size="5" fill="#475569">DA 95</text>
        <text x="98" y="7" font-family="system-ui" font-size="5" fill="#10b981">Live</text>
      </g>
      <g transform="translate(130, 26)">
        <circle cx="4" cy="4" r="3" fill="#10b981"/>
        <text x="12" y="7" font-family="monospace" font-size="5.5" fill="#94a3b8">techcrunch.com</text>
        <text x="82" y="7" font-family="system-ui" font-size="5" fill="#475569">DA 93</text>
        <text x="112" y="7" font-family="system-ui" font-size="5" fill="#10b981">Live</text>
      </g>
      <g transform="translate(260, 26)">
        <circle cx="4" cy="4" r="3" fill="#f59e0b"/>
        <text x="12" y="7" font-family="monospace" font-size="5.5" fill="#94a3b8">hubspot.com</text>
        <text x="72" y="7" font-family="system-ui" font-size="5" fill="#475569">DA 91</text>
        <text x="102" y="7" font-family="system-ui" font-size="5" fill="#f59e0b">Pending</text>
      </g>
    </g>
  </g>
</svg>
