<svg width="32" height="32" viewBox="0 0 32 32" xmlns="http://www.w3.org/2000/svg">
  <defs><linearGradient id="g" x1="0" y1="0" x2="1" y2="1"><stop offset="0%" stop-color="#0A7AFF"/><stop offset="100%" stop-color="#00C6FF"/></linearGradient></defs>
  <rect width="32" height="32" rx="8" fill="url(#g)"/>
  <path d="M8 10h5a5 5 0 0 1 0 10h-2v4H8V10zm3 7h2a2 2 0 0 0 0-4h-2v4z" fill="white"/>
  <path d="M17 14a6 6 0 0 1 6-6h1v3h-1a3 3 0 0 0-3 3v4a6 6 0 0 1-6 6h-1v-3h1a3 3 0 0 0 3-3v-4z" fill="white"/>
  <line x1="22" y1="20" x2="26" y2="20" stroke="white" stroke-width="1.5"/>
  <circle cx="26" cy="20" r="1.5" fill="#FFB800"/>
</svg>
